<svg width="23" height="23" viewBox="0 0 23 23" fill="none" xmlns="http://www.w3.org/2000/svg">
<path fill-rule="evenodd" clip-rule="evenodd" d="M1.23768 21.9847C0.742998 21.4899 0.742998 20.6879 1.23768 20.1934L18.0754 3.35557H7.20001C6.50045 3.35557 5.93334 2.78846 5.93334 2.0889C5.93334 1.38935 6.50045 0.822235 7.20001 0.822235H21.1333C21.4693 0.822235 21.7915 0.955691 22.0291 1.19324C22.2665 1.43079 22.4 1.75296 22.4 2.0889V16.0223C22.4 16.7218 21.8328 17.2889 21.1333 17.2889C20.4339 17.2889 19.8667 16.7218 19.8667 16.0223V5.14691L3.029 21.9847C2.53434 22.4792 1.73234 22.4792 1.23768 21.9847Z" fill="black"/>
</svg>
