<svg width="119" height="120" viewBox="0 0 119 120" fill="none" xmlns="http://www.w3.org/2000/svg">
<path d="M118.104 69.9089C117.594 72.7613 111.498 74.6031 102.562 74.6031H102.336C98.9952 71.8829 94.9377 69.1155 90.3705 66.518C89.0589 65.7719 87.7473 65.0635 86.4356 64.4023C87.9077 64.2134 89.3797 63.9962 90.8612 63.7412C95.9096 62.8628 100.684 61.6349 104.865 60.1803C113.206 63.1367 118.641 66.877 118.094 69.8994L118.104 69.9089ZM111.036 89.0543C110.215 90.4522 108.045 90.745 106.365 90.745C103.279 90.745 99.1651 89.8099 94.5885 88.1475C92.8145 85.1723 90.6065 82.0176 88.0398 78.8062C87.9549 78.7023 87.8605 78.589 87.7756 78.4851C87.5586 78.2112 87.3415 77.9467 87.1151 77.6728C86.7942 77.2856 86.4734 76.8983 86.1431 76.5205C85.1712 75.3776 84.1804 74.2725 83.1896 73.2147C84.6145 73.5264 86.0676 73.8192 87.568 74.0742C92.5409 74.9337 97.4949 75.406 101.958 75.4437C108.771 81.0353 112.583 86.3907 111.026 89.0448L111.036 89.0543ZM79.8586 114.84C79.5944 114.934 79.3019 114.981 78.9999 114.981C76.0181 114.981 71.819 110.523 67.8463 103.694C68.5635 99.4912 68.9598 94.6553 68.9598 89.4699C68.9598 87.987 68.922 86.5135 68.856 85.0684C69.743 86.2113 70.6677 87.3541 71.6491 88.5065C74.0648 91.34 76.5559 93.9469 79.0188 96.2232C79.953 97.0827 80.8683 97.9044 81.7836 98.6695C83.35 107.274 82.7838 113.791 79.8586 114.84ZM59.5047 118.382C56.3813 118.382 53.5882 112.45 52.0784 103.827C54.2299 100.096 56.2964 95.6848 58.0704 90.8678C58.5894 89.4604 59.0612 88.072 59.5047 86.7024C59.9388 88.072 60.42 89.4604 60.939 90.8678C62.713 95.6754 64.7796 100.086 66.931 103.827C65.4212 112.45 62.6281 118.382 59.5047 118.382ZM40.0095 114.991C39.7076 114.991 39.415 114.944 39.1508 114.849C36.2162 113.801 35.65 107.283 37.2258 98.6789C40.5568 95.8831 44.0293 92.4168 47.3509 88.5159C48.3322 87.373 49.257 86.2207 50.144 85.0778C50.0779 86.5135 50.0402 87.9775 50.0402 89.4793C50.0402 94.6647 50.446 99.5007 51.1537 103.704C47.1905 110.533 42.9819 114.991 40.0095 114.991ZM23.2791 105.291C22.4299 105.291 21.7505 105.083 21.2503 104.667C19.5801 103.288 19.8821 99.5951 22.0807 94.5325C22.8639 92.7285 23.8547 90.8111 25.0248 88.837C29.1484 87.3164 33.6306 85.229 38.094 82.6882C39.4056 81.942 40.6795 81.177 41.9156 80.4025C41.3495 81.7342 40.8116 83.0944 40.2926 84.5017C38.4903 89.3943 37.1881 94.0886 36.3954 98.2917C31.1678 102.655 26.3931 105.291 23.2886 105.291H23.2791ZM12.6351 90.7544C10.9554 90.7544 8.78511 90.4616 7.96416 89.0637C6.40718 86.4002 10.2194 81.0542 17.0323 75.4626C21.4862 75.4249 26.4402 74.9526 31.4226 74.0931C32.9229 73.8286 34.3855 73.5358 35.8104 73.2336C34.8196 74.2914 33.8288 75.3965 32.8569 76.5394C29.5542 80.4214 26.6856 84.3978 24.4303 88.1664C19.8443 89.8382 15.7302 90.7733 12.6351 90.7733V90.7544ZM16.4379 74.6126C7.51122 74.6126 1.41543 72.7708 0.896437 69.9183C0.358574 66.8958 5.78439 63.1556 14.1166 60.1992C18.193 61.6254 22.9489 62.8533 28.1293 63.7506C29.6108 64.0056 31.0923 64.2323 32.5549 64.4212C31.2433 65.0824 29.9411 65.7908 28.62 66.5369C24.0529 69.1344 20.0048 71.9018 16.6643 74.622H16.4284L16.4379 74.6126ZM7.96416 30.3996C8.78511 29.0017 10.9554 28.7089 12.6351 28.7089C15.7207 28.7089 19.8349 29.644 24.4115 31.3064C26.6101 34.9805 29.4598 38.9475 32.8474 42.9334C33.8194 44.0763 34.8102 45.1813 35.801 46.2392C34.3761 45.9275 32.9135 45.6347 31.4131 45.3797C28.8182 44.9263 26.2232 44.5863 23.7037 44.3502C21.4013 44.1424 19.1555 44.029 17.0229 44.0101C10.21 38.4186 6.39775 33.0726 7.95472 30.4091L7.96416 30.3996ZM21.2503 14.7962C21.7505 14.3806 22.4299 14.1728 23.2791 14.1728C26.3836 14.1728 31.1678 16.8174 36.3954 21.1717C37.1881 25.3748 38.4808 30.069 40.2926 34.9522C40.8116 36.3595 41.3589 37.7291 41.9156 39.0609C40.6889 38.2864 39.415 37.5213 38.094 36.7751C33.6401 34.2344 29.1673 32.1564 25.0437 30.6358C20.5804 23.0796 18.8535 16.7702 21.2409 14.7962H21.2503ZM39.1508 4.61424C39.415 4.51979 39.7076 4.47257 40.0095 4.47257C42.9819 4.47257 47.1905 8.9307 51.1537 15.7501C50.4365 19.9532 50.0402 24.7892 50.0402 29.984C50.0402 30.4846 50.0402 30.9852 50.0496 31.4858C50.0496 31.8353 50.0591 32.1848 50.0779 32.5342C50.0779 32.6665 50.0779 32.8081 50.0874 32.9404C50.0968 33.4315 50.1251 33.9132 50.144 34.3855C49.257 33.2426 48.3322 32.0998 47.3509 30.9474C44.0293 27.0466 40.5568 23.5802 37.2258 20.7844C35.65 12.1798 36.2162 5.67211 39.1508 4.61424ZM78.9999 4.47257C79.3019 4.47257 79.585 4.51979 79.8586 4.61424C81.8968 5.34152 82.8971 8.92125 82.5951 14.4184C82.4913 16.383 82.2177 18.5176 81.8119 20.7655C78.4809 23.5707 74.9895 27.0371 71.6586 30.9474C70.6866 32.0903 69.7619 33.2332 68.8654 34.3855C68.9315 32.9498 68.9692 31.4858 68.9692 29.984C68.9692 29.4645 68.9692 28.9545 68.9598 28.435C68.9598 28.3784 68.9598 28.3217 68.9598 28.265C68.9598 27.84 68.9409 27.4149 68.9315 26.9899C68.9221 26.6215 68.9032 26.2721 68.8937 25.9132C68.8937 25.7998 68.8937 25.6865 68.8843 25.5826C68.7239 22.0501 68.3747 18.7443 67.8652 15.7501C71.8378 8.92125 76.0369 4.47257 79.0188 4.47257H78.9999ZM95.7303 14.1728C96.5701 14.1728 97.259 14.39 97.7591 14.7962C100.146 16.7702 98.4291 23.0796 93.9657 30.6358C89.8421 32.1564 85.3788 34.2344 80.9249 36.7751C79.6038 37.5213 78.3299 38.2864 77.1032 39.0609C77.6694 37.7291 78.2073 36.3595 78.7263 34.9522C80.4814 30.1918 81.8025 25.4787 82.6045 21.1811C87.8322 16.808 92.6258 14.1633 95.7303 14.1633V14.1728ZM106.374 28.7089C108.054 28.7089 110.224 29.0017 111.045 30.3996C112.13 32.2603 110.564 35.6228 106.752 39.6465C105.393 41.0821 103.798 42.5461 102.015 44.0007C97.5515 44.0385 92.5786 44.5107 87.5963 45.3703C86.0959 45.6253 84.6333 45.9181 83.2179 46.2298C84.2087 45.1719 85.1901 44.0668 86.1714 42.9239C89.559 38.9475 92.4088 34.9805 94.6074 31.2969C99.184 29.6346 103.298 28.6995 106.384 28.6995L106.374 28.7089ZM75.4613 59.7269C78.4904 58.7163 81.7459 57.3656 85.0768 55.7316C86.9358 55.9489 88.8324 56.2133 90.7291 56.5439C95.3717 57.3468 99.7407 58.4613 103.572 59.7364C99.6935 61.0304 95.3246 62.1166 90.7291 62.91C88.8324 63.2406 86.9452 63.505 85.0768 63.7223C81.7364 62.0882 78.4809 60.7376 75.4519 59.7269H75.4613ZM75.8954 64.2795C75.0178 64.2795 74.1686 64.2606 73.3476 64.2229C71.8945 63.1272 70.479 62.1827 69.1485 61.3987C70.6866 61.1154 72.338 60.6998 74.0931 60.1614C77.0089 61.0776 80.1889 62.3338 83.4632 63.8828C80.8305 64.1379 78.2828 64.2701 75.8954 64.2701V64.2795ZM74.4988 65.1107C74.9612 65.1201 75.4142 65.1296 75.8954 65.1296C78.7263 65.1296 81.7836 64.9501 84.9259 64.6007C86.5866 65.4224 88.2757 66.3102 89.9459 67.2737C94.0318 69.5972 97.7497 72.1096 100.901 74.6031C96.7777 74.5087 92.2672 74.0459 87.7378 73.2619C85.8223 72.9313 83.9539 72.5441 82.1422 72.119C79.5661 69.4555 76.9711 67.0942 74.4894 65.1296L74.4988 65.1107ZM93.258 87.6564C89.4741 86.1924 85.4071 84.2561 81.3495 81.9515C79.6604 80.9975 78.0374 79.9963 76.4899 78.9857C74.9895 75.6043 73.3759 72.5252 71.7246 69.8522C74.6687 70.9762 78.0374 72.0057 81.7175 72.8747C82.9914 74.2064 84.2559 75.6043 85.5015 77.0683C88.5305 80.6292 91.1538 84.2467 93.258 87.6469V87.6564ZM72.3191 87.9681C71.0735 86.5041 69.894 85.0212 68.7805 83.5477C68.554 79.9208 68.1105 76.4733 67.4877 73.3752C69.8562 75.4249 72.6588 77.5217 75.7916 79.5619C76.5371 81.2431 77.2353 82.9905 77.9053 84.785C79.5189 89.1582 80.7362 93.4463 81.5288 97.3566C81.274 97.1394 81.0287 96.9127 80.7645 96.686C77.9714 94.183 75.0933 91.2361 72.3096 87.9681H72.3191ZM57.4382 73.9514C58.278 72.3457 58.9763 70.825 59.5142 69.3988C60.052 70.825 60.7503 72.3457 61.5901 73.9514C61.1844 76.9266 60.4955 80.223 59.5142 83.6894C58.5422 80.223 57.8439 76.9172 57.4382 73.9514ZM52.6352 72.3835C53.5222 71.5807 54.3431 70.7684 55.098 69.975C55.4755 69.5783 55.8246 69.191 56.1549 68.8132C56.1643 70.3339 56.2964 72.0057 56.5229 73.7908C55.1074 76.4449 53.3146 79.3163 51.1914 82.2443C51.4745 78.6551 51.9746 75.3115 52.6257 72.3835H52.6352ZM51.5217 73.3658C50.9083 76.4166 50.4648 79.8452 50.2384 83.5572C49.1343 85.0212 47.9548 86.5041 46.6998 87.9681C43.6708 91.5289 40.5191 94.7214 37.49 97.3566C38.2827 93.4463 39.4905 89.1582 41.1041 84.785C41.7741 82.981 42.4724 81.2337 43.2178 79.5619C46.294 77.55 49.106 75.4532 51.5122 73.3752L51.5217 73.3658ZM48.6531 69.3138C50.3422 68.6243 51.8708 67.8876 53.2108 67.1414C52.6918 68.5771 52.2294 70.2017 51.8236 71.9679C49.5401 74.0175 46.8508 76.0955 43.8878 78.0978C45.3976 74.8298 47.0206 71.8546 48.6531 69.3138ZM47.3037 69.8427C45.6524 72.5157 44.0293 75.6043 42.5384 78.9857C40.9814 79.9963 39.3584 80.9881 37.6788 81.942C33.6118 84.2561 29.5353 86.1924 25.742 87.6564C27.884 84.1994 30.5261 80.5914 33.5268 77.0683C34.7819 75.6043 36.0463 74.2064 37.3108 72.8747C40.9909 72.0057 44.3596 70.9762 47.3037 69.8427ZM45.9449 65.0635C46.1619 65.054 46.3695 65.0446 46.5865 65.0351C47.2754 64.9974 47.9454 64.9407 48.587 64.884C49.4552 64.799 50.2855 64.6951 51.0687 64.5629C50.0874 65.7341 49.0966 67.0848 48.1152 68.596C45.2844 69.7389 42.01 70.8062 38.4525 71.7223C41.0003 69.1532 43.5481 66.9053 45.9543 65.0729L45.9449 65.0635ZM43.1329 65.1296C43.6047 65.1296 44.0671 65.1296 44.5295 65.1107C42.0477 67.0753 39.4622 69.4366 36.8861 72.1001C35.0744 72.5252 33.206 72.9124 31.2905 73.243C26.7611 74.027 22.2411 74.4898 18.1175 74.5937C21.2786 72.1001 24.9871 69.5877 29.0729 67.2642C30.7526 66.3102 32.4322 65.413 34.093 64.5912C37.2353 64.9407 40.2926 65.1202 43.1235 65.1202L43.1329 65.1296ZM15.4848 59.7364C19.3065 58.4613 23.666 57.3562 28.2992 56.5534C30.1959 56.2228 32.0831 55.9489 33.942 55.7411C37.2824 57.3751 40.5379 58.7163 43.567 59.7364C40.5379 60.747 37.2824 62.0977 33.942 63.7317C32.0831 63.5145 30.1959 63.25 28.2992 62.9194C23.666 62.1166 19.3065 61.0115 15.4848 59.7364ZM16.4567 44.8508C16.5322 44.8508 16.6172 44.8508 16.6926 44.8508C20.0331 47.571 24.0906 50.329 28.6483 52.9264C29.96 53.6726 31.2716 54.3715 32.5832 55.0421C31.1206 55.231 29.6391 55.4483 28.1576 55.7033C22.9772 56.6006 18.2213 57.8379 14.1449 59.2547C5.78439 56.2983 0.349137 52.5675 0.896437 49.5356C1.02854 48.7894 1.54754 48.1188 2.38736 47.5238C4.77472 45.8425 9.83252 44.8319 16.4379 44.8319L16.4567 44.8508ZM31.2905 46.2203C33.206 46.5509 35.0744 46.9382 36.8861 47.3632C39.4622 50.0362 42.0477 52.388 44.5295 54.3526C44.0765 54.3432 43.6141 54.3337 43.1329 54.3337C40.2926 54.3337 37.2447 54.5132 34.1024 54.8627C32.4417 54.0409 30.762 53.1531 29.0824 52.1897C24.9965 49.8662 21.2786 47.3537 18.1269 44.8602C19.9104 44.898 21.7599 45.0113 23.6566 45.1908C26.1477 45.4175 28.7238 45.7669 31.2905 46.2109V46.2203ZM47.3037 49.6206C44.3596 48.4872 40.9909 47.4576 37.3108 46.5887C36.0369 45.2664 34.7724 43.859 33.5268 42.395C30.4978 38.8342 27.8746 35.2167 25.7703 31.8164C29.5542 33.2804 33.6212 35.2167 37.6788 37.5213C39.3679 38.4847 40.9909 39.4765 42.5384 40.4776C44.0388 43.859 45.6524 46.9476 47.3037 49.6206ZM51.8331 47.5332C52.2388 49.29 52.7012 50.8957 53.2108 52.3314C51.8614 51.5852 50.3422 50.8579 48.6531 50.159C47.0206 47.6277 45.407 44.6524 43.8972 41.3844C46.9074 43.4245 49.5873 45.5119 51.8331 47.5332ZM51.5217 46.0881C49.1532 44.0479 46.3601 41.9511 43.2178 39.9109C42.4818 38.2297 41.7741 36.4823 41.1041 34.6877C39.4905 30.3146 38.2732 26.0265 37.49 22.1162C40.5191 24.7514 43.6708 27.9439 46.6998 31.5047C47.9454 32.9687 49.1249 34.4516 50.2384 35.9156C50.4648 39.6181 50.9083 43.0467 51.5217 46.0881ZM51.8708 16.9969C53.8052 20.5011 55.6736 24.5436 57.2778 28.8884C57.9477 30.6924 58.5328 32.4776 59.0612 34.2249C57.9949 37.7763 57.2212 41.1483 56.7399 44.2179C55.2207 41.4977 53.324 38.5886 51.0876 35.6134C50.9744 33.7904 50.9178 31.9109 50.9178 29.9935C50.9178 25.3559 51.2669 20.9261 51.8708 16.9969ZM67.5161 46.0881C68.1294 43.0467 68.5729 39.6087 68.7994 35.9062C69.9034 34.4327 71.0924 32.9593 72.3285 31.5047C75.367 27.9344 78.5281 24.742 81.5666 22.0973C80.7645 26.0643 79.5283 30.3524 77.9242 34.6877C77.2637 36.4823 76.5559 38.2297 75.8105 39.9109C72.6777 41.9511 69.8845 44.0479 67.5161 46.0881ZM70.3847 50.159C68.6956 50.8579 67.1669 51.5852 65.8175 52.3314C65.9025 52.0858 65.9968 51.8402 66.0723 51.5852C66.4875 50.3479 66.865 48.9878 67.1952 47.5332C69.441 45.5119 72.1304 43.4245 75.1311 41.3844C73.6213 44.643 71.9983 47.6182 70.3752 50.1495L70.3847 50.159ZM71.7246 49.63C73.3759 46.957 74.9895 43.8779 76.4899 40.4965C78.0374 39.4859 79.6604 38.4942 81.3495 37.5307C85.4071 35.2261 89.4741 33.2898 93.258 31.8258C91.1538 35.2261 88.5305 38.8436 85.5015 42.4045C84.2559 43.8685 82.982 45.2758 81.7175 46.5981C78.0374 47.4671 74.6687 48.4966 71.7246 49.63ZM73.0929 54.4093C71.215 54.4943 69.4977 54.6643 67.969 54.9099C68.9504 53.7387 69.9412 52.388 70.9225 50.8768C73.7534 49.7245 77.0278 48.6572 80.5852 47.7504C78.0374 50.3195 75.4896 52.5675 73.0834 54.3999L73.0929 54.4093ZM75.8954 54.3432C75.4236 54.3432 74.9612 54.3432 74.4988 54.3621C76.9806 52.3975 79.5661 50.0456 82.1516 47.3726C83.9539 46.9476 85.8223 46.5603 87.7473 46.2298C92.2861 45.4364 96.806 44.983 100.949 44.8791C97.7402 47.401 94.0035 49.9039 89.9554 52.2086C88.2757 53.1625 86.5961 54.0598 84.9353 54.8816C81.793 54.5321 78.7451 54.3526 75.9048 54.3526L75.8954 54.3432ZM69.1485 58.0646C70.479 57.2901 71.8945 56.3361 73.3476 55.2405C74.1686 55.2121 75.0178 55.1933 75.886 55.1933C78.2733 55.1933 80.8305 55.3255 83.4632 55.5805C80.1794 57.1295 77.0089 58.3857 74.0931 59.3114C72.3474 58.773 70.6866 58.3574 69.1485 58.074V58.0646ZM65.7515 59.7458C66.4592 59.4719 67.1952 59.1319 67.9596 58.7258C69.3939 58.9335 70.9508 59.283 72.6116 59.7458C70.9508 60.2087 69.3939 60.5487 67.9596 60.7659C67.1952 60.3598 66.4498 60.0197 65.7515 59.7458ZM67.969 64.5723C69.4977 64.8273 71.215 64.9974 73.0929 65.0729C75.4991 66.9053 78.0374 69.1532 80.5946 71.7223C77.0372 70.8156 73.7628 69.7483 70.932 68.596C69.9506 67.0848 68.9598 65.7341 67.9784 64.5629L67.969 64.5723ZM65.3269 65.8852C64.9966 65.0824 64.6474 64.3645 64.2983 63.7034C65.0155 63.9395 65.7987 64.1473 66.6574 64.3268C67.5915 65.3752 68.5446 66.603 69.4977 67.9915C67.9407 67.302 66.5441 66.5936 65.3363 65.8758L65.3269 65.8852ZM66.3082 68.6338C66.1478 68.1143 65.978 67.6231 65.8175 67.1509C67.1575 67.897 68.6956 68.6338 70.3847 69.3327C72.0171 71.8735 73.6307 74.8393 75.1405 78.1073C72.1304 76.0671 69.441 73.9797 67.1952 71.9585C66.931 70.7873 66.629 69.6916 66.3177 68.6432L66.3082 68.6338ZM62.8451 67.472C62.8074 66.603 62.7319 65.8002 62.6187 65.0635C63.2131 65.5263 63.8831 65.9986 64.6286 66.4614C64.9305 67.2075 65.2136 68.0104 65.4778 68.8793C65.676 69.5216 65.8647 70.1922 66.044 70.8817C64.8079 69.7105 63.7321 68.5582 62.8451 67.472ZM62.496 73.8097C62.7225 72.0246 62.8451 70.3528 62.864 68.8321C63.8737 69.9939 65.0626 71.2029 66.412 72.4307C67.082 75.406 67.5538 78.7401 67.8369 82.2821C65.7137 79.3446 63.9114 76.4733 62.5054 73.8097H62.496ZM57.4099 64.1851C57.6835 63.9206 57.9289 63.6656 58.1553 63.4106C58.1553 63.7412 58.1742 64.0906 58.212 64.459C57.9194 65.0257 57.542 65.6207 57.1079 66.2441C57.174 65.498 57.2683 64.8085 57.4099 64.1945V64.1851ZM55.985 63.2217C56.3247 63.0705 56.655 62.91 56.9475 62.7494C56.8343 63.0611 56.7305 63.4011 56.6455 63.76C56.1643 64.1851 55.617 64.6196 54.9848 65.054C55.3056 64.374 55.6359 63.7695 55.985 63.2311V63.2217ZM54.7206 63.7034C54.3525 64.3551 54.0128 65.0918 53.6826 65.8852C52.4747 66.603 51.0687 67.3114 49.5118 68.0009C50.4648 66.6125 51.4179 65.3846 52.3521 64.3362C53.2108 64.1567 54.0034 63.9489 54.7206 63.7034ZM51.0499 58.7258C51.8142 59.1319 52.5597 59.4719 53.2579 59.7458C52.5502 60.0197 51.8142 60.3598 51.0499 60.7659C49.6156 60.5581 48.0586 60.2181 46.3978 59.7458C48.0586 59.283 49.6156 58.9335 51.0499 58.7258ZM49.8609 58.0646C48.3228 58.3479 46.6715 58.7635 44.9258 59.3019C42.01 58.3857 38.83 57.1201 35.5462 55.5711C38.1789 55.316 40.7267 55.1838 43.1235 55.1838C44.001 55.1838 44.8503 55.2027 45.6618 55.231C47.115 56.3267 48.5304 57.2712 49.8609 58.0551V58.0646ZM51.9558 55.9583C52.5314 56.5911 53.107 57.1484 53.6637 57.6396C52.8805 57.6585 52.0501 57.734 51.1631 57.8568C49.9081 57.1767 48.5682 56.3361 47.1716 55.3349C48.9362 55.4577 50.5403 55.6655 51.9558 55.9583ZM48.0869 50.8862C49.0683 52.3975 50.0685 53.7481 51.0404 54.9193C49.5118 54.6643 47.7944 54.5038 45.926 54.4187C43.5198 52.5864 40.972 50.3384 38.4242 47.7693C41.9817 48.6761 45.256 49.7434 48.0869 50.8957V50.8862ZM56.1454 50.6596C55.1452 49.5072 53.9657 48.3077 52.6163 47.0798C51.9652 44.1518 51.4745 40.8177 51.182 37.2285C53.2957 40.1565 55.098 43.0278 56.5134 45.6819C56.2775 47.4765 56.1549 49.1389 56.1454 50.6596ZM59.0518 51.368C58.7781 52.1991 58.5705 52.9736 58.4196 53.7009C58.0232 53.0586 57.5609 52.4069 57.023 51.7269C56.9947 50.3384 57.0702 48.7894 57.2495 47.1176C57.9949 48.6288 58.6083 50.0645 59.0612 51.3774L59.0518 51.368ZM61.5807 45.5403C61.0239 46.5981 60.5333 47.6371 60.0992 48.6383C59.8822 49.1389 59.6934 49.6206 59.5142 50.0834C58.9763 48.6572 58.278 47.1365 57.4382 45.5214C57.8439 42.5461 58.5328 39.2498 59.5142 35.7834C60.4955 39.2498 61.1844 42.5556 61.5901 45.5308L61.5807 45.5403ZM62.2884 44.2463C61.8072 41.1766 61.0334 37.7952 59.9577 34.2344C60.4861 32.487 61.0806 30.6924 61.7411 28.8978C63.3453 24.553 65.2042 20.5105 67.148 17.0063C67.7614 20.9355 68.1011 25.3653 68.1011 30.0029C68.1011 31.9203 68.0445 33.7999 67.9218 35.6228C65.7326 38.5508 63.8171 41.4694 62.2695 44.2368L62.2884 44.2463ZM66.3931 47.0893C65.0532 48.3077 63.8642 49.5072 62.8734 50.669C62.8546 49.1483 62.7319 47.4671 62.496 45.6725C63.9303 42.9712 65.7326 40.1187 67.8274 37.2285C67.5444 40.8271 67.0442 44.1707 66.3931 47.0987V47.0893ZM64.6286 53.0492C63.8831 53.5026 63.2131 53.9748 62.6187 54.4376C62.7319 53.6915 62.8074 52.8886 62.8451 52.0291C63.7227 50.9429 64.7984 49.8095 66.0157 48.6383C65.9685 48.8272 65.9213 49.0161 65.8742 49.1956C65.4967 50.6029 65.0815 51.8969 64.6286 53.0397V53.0492ZM64.2889 55.7977C64.6569 55.146 64.9966 54.4187 65.3269 53.6159C66.5347 52.8981 67.9312 52.1802 69.4882 51.5002C68.5352 52.8886 67.5821 54.1259 66.6574 55.1649C65.7987 55.3444 65.006 55.5522 64.2889 55.7977ZM64.0341 57.6679C63.6566 57.6962 63.2886 57.734 62.9584 57.7907C63.166 57.5451 63.3736 57.2712 63.5717 56.9878C64.1662 56.7423 64.8456 56.525 65.5816 56.3172C65.0532 56.8367 64.5342 57.2901 64.0341 57.6679ZM65.3457 57.6585C65.9119 57.1673 66.4781 56.6006 67.0537 55.9772C68.4691 55.6844 70.0733 55.4766 71.8378 55.3538C70.4413 56.3456 69.1013 57.1956 67.8463 57.8757C66.9593 57.7529 66.1195 57.6773 65.3457 57.6585ZM64.2983 59.2736C63.9963 59.1886 63.7038 59.1225 63.4207 59.0752C63.7133 58.9147 63.9963 58.7258 64.2889 58.5085C64.5059 58.4991 64.7229 58.4991 64.9305 58.4991C65.4118 58.4991 65.9308 58.5274 66.4592 58.5746C65.7704 58.8863 65.1098 59.1413 64.487 59.3303C64.4304 59.3114 64.3644 59.2925 64.3077 59.2736H64.2983ZM65.3457 61.871C66.1289 61.8521 66.9593 61.7766 67.8463 61.6538C69.1013 62.3244 70.4413 63.1744 71.8378 64.1756C70.0733 64.0528 68.4691 63.8356 67.0537 63.5523C66.4781 62.9194 65.9025 62.3527 65.3457 61.871ZM62.9678 61.7388C63.3075 61.7954 63.6566 61.8238 64.0341 61.8521C64.5342 62.2299 65.0532 62.6833 65.5816 63.2028C64.8456 63.0044 64.1756 62.7872 63.5812 62.5416C63.383 62.2488 63.1754 61.9843 62.9678 61.7388ZM62.0619 62.7683C62.3544 62.9289 62.6753 63.0894 63.015 63.2406C63.3641 63.7695 63.6944 64.3834 64.0247 65.0635C63.4019 64.6384 62.8451 64.204 62.3733 63.7789C62.2884 63.42 62.1846 63.0894 62.0714 62.7683H62.0619ZM60.8069 64.4968C60.8447 64.1284 60.8635 63.7695 60.873 63.4295C61.0994 63.6845 61.3353 63.9489 61.6184 64.204C61.76 64.8273 61.8543 65.5168 61.9204 66.263C61.4769 65.6491 61.1089 65.054 60.8163 64.4873L60.8069 64.4968ZM54.9942 61.8521C55.3717 61.8238 55.7397 61.786 56.0699 61.7293C55.8623 61.9749 55.6642 62.2488 55.466 62.5322C54.8715 62.7777 54.1921 63.0044 53.4561 63.2028C53.9845 62.6833 54.5035 62.2299 55.0036 61.8521H54.9942ZM53.6826 61.871C53.1164 62.3527 52.5502 62.9194 51.9746 63.5523C50.5592 63.8356 48.955 64.0434 47.1905 64.1756C48.587 63.1744 49.927 62.3244 51.182 61.6538C52.069 61.7766 52.9088 61.8521 53.6826 61.871ZM55.6076 60.4542C55.3245 60.6242 55.032 60.8037 54.7394 61.0209C54.5224 61.0304 54.3054 61.0398 54.0978 61.0398C53.6165 61.0398 53.0975 61.0115 52.5691 60.9643C53.2579 60.6526 53.9279 60.3976 54.5413 60.1992C54.9093 60.3125 55.2584 60.3881 55.6076 60.4542ZM54.7394 58.5085C55.032 58.7258 55.3245 58.9147 55.6076 59.0752C55.2679 59.1413 54.9093 59.2264 54.5413 59.3303C53.9185 59.1413 53.2579 58.8863 52.5691 58.5746C53.0975 58.5274 53.6165 58.4991 54.0978 58.4991C54.3054 58.4991 54.5224 58.4991 54.7394 58.5085ZM55.4566 56.9878C55.6547 57.2806 55.8623 57.5451 56.0699 57.7907C55.7302 57.734 55.3811 57.6962 55.0036 57.6679C54.5035 57.2901 53.9845 56.8367 53.4561 56.3172C54.1921 56.5156 54.8621 56.7328 55.4566 56.9878ZM53.7014 53.6254C53.7014 53.6254 53.7109 53.6631 53.7203 53.682C53.7486 53.7387 53.7675 53.7954 53.7958 53.852C53.8619 54.0032 53.9185 54.1354 53.9845 54.2771C54.2299 54.8249 54.4847 55.3349 54.7394 55.7977C54.0223 55.5616 53.2296 55.3538 52.3709 55.1649C51.4462 54.1165 50.4931 52.8886 49.5401 51.5002C51.0971 52.1897 52.503 52.8981 53.7109 53.6159L53.7014 53.6254ZM58.1553 56.0905C57.9383 55.8355 57.693 55.5711 57.4193 55.316C57.2778 54.6927 57.174 54.0032 57.1079 53.257C57.5514 53.8709 57.91 54.4565 58.212 55.0232C58.1742 55.401 58.1553 55.7505 58.1459 56.0905H58.1553ZM59.9388 54.8816C59.7689 55.2121 59.6274 55.5427 59.5142 55.8639C59.4009 55.5522 59.2594 55.231 59.099 54.9005C59.1839 54.2676 59.3254 53.5876 59.5236 52.8508C59.7217 53.5781 59.8633 54.2582 59.9482 54.891L59.9388 54.8816ZM61.609 55.316C61.3353 55.5805 61.09 55.8355 60.8635 56.1C60.8635 55.76 60.8447 55.4105 60.7975 55.0327C61.0994 54.466 61.4674 53.8709 61.9015 53.257C61.8355 54.0032 61.7317 54.6927 61.5996 55.316H61.609ZM63.0339 56.2794C62.6847 56.4306 62.3639 56.5911 62.0619 56.7612C62.1752 56.4495 62.279 56.1094 62.3639 55.7505C62.8451 55.3255 63.3924 54.891 64.0247 54.466C63.7038 55.146 63.3736 55.7505 63.0339 56.2889V56.2794ZM56.6644 55.7505C56.7493 56.1094 56.8531 56.44 56.9664 56.7612C56.6739 56.5911 56.353 56.44 56.0133 56.2889C55.6642 55.76 55.3339 55.146 55.0036 54.466C55.6264 54.891 56.1832 55.3255 56.655 55.7505H56.6644ZM64.2983 61.0115C64.0058 60.7943 63.7133 60.6148 63.4302 60.4448C63.7699 60.3787 64.1285 60.3031 64.4965 60.1898C65.1193 60.3787 65.7798 60.6337 66.4686 60.9548C65.9402 61.0021 65.4212 61.0304 64.94 61.0304C64.7324 61.0304 64.5248 61.0304 64.2983 61.0115ZM62.0053 51.7269C61.4674 52.4069 60.9956 53.0775 60.5993 53.7104C60.4483 52.9736 60.2407 52.1897 59.9671 51.368C60.2313 50.6123 60.5333 49.8189 60.9013 48.9783C61.1655 48.3644 61.4674 47.7315 61.7788 47.0893C61.9581 48.7705 62.0336 50.3384 62.0053 51.7363V51.7269ZM56.1832 52.0291C56.2115 52.8886 56.287 53.6915 56.4002 54.4376C55.8057 53.9748 55.1358 53.5026 54.3997 53.0492C53.8902 51.7552 53.4184 50.2723 53.0032 48.6383C54.2204 49.8095 55.2962 50.9429 56.1832 52.0291ZM59.4575 66.4614C59.2877 65.8191 59.165 65.2146 59.0895 64.6479C59.2594 64.3173 59.4009 63.9867 59.5142 63.6656C59.6368 63.9867 59.7689 64.3079 59.9388 64.6384C59.8539 65.2713 59.7123 65.9513 59.5142 66.6786C59.4953 66.603 59.4764 66.5369 59.4575 66.4614ZM61.7788 72.393C61.0334 70.8817 60.4295 69.4555 59.9671 68.1332C60.2407 67.3114 60.4483 66.5275 60.5993 65.7908C60.9956 66.433 61.4674 67.0942 62.0053 67.7837C62.0336 69.1721 61.9581 70.7212 61.7788 72.393ZM35.5556 63.9206C38.8394 62.3716 42.01 61.1154 44.9352 60.1992C46.6809 60.7376 48.3417 61.1532 49.8703 61.4365C48.5398 62.2205 47.1244 63.165 45.6712 64.2512C44.8503 64.289 44.0105 64.3079 43.1329 64.3079C40.7455 64.3079 38.1883 64.1756 35.5556 63.9206ZM54.4752 69.4272C54.0128 69.9183 53.5127 70.4095 52.9937 70.9101C53.4089 69.2666 53.8807 67.7743 54.3903 66.4708C55.1358 66.008 55.7963 65.5452 56.3908 65.0729C56.2775 65.8191 56.202 66.6219 56.1643 67.4909C55.6642 68.1143 55.098 68.766 54.4658 69.4272H54.4752ZM57.0324 67.7931C57.5703 67.1131 58.0421 66.4425 58.4384 65.8097C58.5894 66.5464 58.797 67.3209 59.0706 68.1426C58.6177 69.4555 58.0044 70.8912 57.2589 72.4024C57.0796 70.7306 57.0041 69.1816 57.0324 67.7931ZM64.1096 5.72878C64.1473 5.81378 64.1851 5.89879 64.2323 5.99324C64.2794 6.09714 64.3266 6.20104 64.3738 6.30493C65.4212 8.76068 66.2988 11.9626 66.9499 15.6557C64.8079 19.3865 62.7413 23.7974 60.9579 28.605C60.4389 30.0124 59.9577 31.4103 59.5236 32.7798C59.0895 31.4103 58.6083 30.0218 58.0893 28.605C56.3153 23.7974 54.2487 19.3865 52.0973 15.6557C53.6071 7.04166 56.4002 1.10063 59.5236 1.10063C59.6651 1.10063 59.7972 1.11008 59.9388 1.13841C61.4014 1.39343 62.8546 3.00856 64.119 5.72878H64.1096ZM51.0876 83.8878C53.324 80.9125 55.2301 78.0034 56.7399 75.2832C57.2212 78.3434 57.9949 81.7154 59.0706 85.2762C58.5422 87.0236 57.9477 88.8181 57.2872 90.6127C55.683 94.9575 53.8241 99.0095 51.8803 102.504C51.2763 98.575 50.9272 94.1452 50.9272 89.5076C50.9272 87.5903 50.9838 85.7107 51.0971 83.8878H51.0876ZM68.12 89.5076C68.12 94.1452 67.7708 98.575 67.1669 102.504C65.2325 99.0095 63.3641 94.9575 61.76 90.6127C61.09 88.8087 60.505 87.0236 59.9765 85.2762C61.0428 81.7248 61.8166 78.3529 62.2978 75.2832C63.8171 78.0034 65.7137 80.9125 67.9596 83.8972C68.0633 85.7296 68.12 87.5997 68.12 89.5076ZM98.1743 97.9139C98.212 98.0461 98.2498 98.1783 98.2875 98.3011C98.3347 98.4806 98.3913 98.6695 98.4385 98.8489C98.4385 98.8678 98.4385 98.8867 98.4479 98.8962C99.0613 101.446 98.9481 103.354 98.0611 104.393C97.9761 104.497 97.8723 104.592 97.7685 104.686C97.2684 105.102 96.589 105.309 95.7397 105.309C92.6352 105.309 87.8511 102.665 82.6234 98.3106C81.8402 94.1074 80.538 89.4132 78.7263 84.5206C78.2073 83.1132 77.66 81.7531 77.1032 80.4214C78.3299 81.1864 79.6038 81.9609 80.9249 82.7071C85.3788 85.2384 89.8421 87.3258 93.9657 88.8465C95.8907 92.1145 97.3156 95.1464 98.1082 97.6966C98.1271 97.7627 98.1554 97.8383 98.1743 97.9139ZM102.581 44.8791C111.508 44.8791 117.603 46.7209 118.122 49.5828C118.5 51.6891 115.858 54.3337 110.875 56.8178C109.101 57.7057 107.101 58.5369 104.931 59.3114C100.845 57.8851 96.07 56.6573 90.8801 55.7505C89.3986 55.4955 87.9171 55.2688 86.4545 55.0894C87.7662 54.4187 89.0683 53.7198 90.3894 52.9736C94.8339 50.4423 98.9103 47.6749 102.336 44.898C102.421 44.898 102.506 44.898 102.59 44.898L102.581 44.8791ZM106.176 59.7553C108.016 59.0752 109.724 58.3385 111.262 57.5734C116.688 54.8627 119.425 51.9724 118.962 49.4317C118.377 46.1448 112.555 44.1424 103.345 44.0385C104.836 42.7728 106.195 41.5072 107.375 40.2604C111.527 35.8873 113.102 32.2509 111.791 30.0124C110.97 28.605 109.149 27.8966 106.374 27.8966C103.421 27.8966 99.552 28.7184 95.2585 30.2013C99.5992 22.5884 100.977 16.383 98.3158 14.1822C97.6553 13.6438 96.7872 13.3605 95.7397 13.3605C92.6164 13.3605 87.9454 15.8351 82.8405 19.9627C83.1613 18.0359 83.3689 16.2129 83.4727 14.4939C83.8029 8.51511 82.6329 4.73703 80.17 3.84918C79.8114 3.71695 79.4245 3.65083 79.0188 3.65083C75.8577 3.65083 71.6397 7.85395 67.6387 14.4845C67.0254 11.3014 66.2327 8.51511 65.2985 6.28604C65.2891 6.24826 65.2702 6.21048 65.2608 6.18215C65.1853 6.01213 65.1098 5.85156 65.0438 5.68155C64.9777 5.54932 64.9211 5.41709 64.8645 5.28485C64.855 5.25652 64.8362 5.23763 64.8267 5.20929C63.2886 1.98848 61.4674 0.26001 59.533 0.26001C56.0511 0.26001 53.0598 5.89879 51.4179 14.4939C47.4075 7.86339 43.1895 3.66028 40.0378 3.66028C39.6321 3.66028 39.2452 3.7264 38.8866 3.85863C35.6122 5.02983 34.763 11.3298 36.1973 19.9532C31.0923 15.8351 26.4214 13.3699 23.3074 13.3699C22.26 13.3699 21.3824 13.6438 20.7313 14.1917C18.0609 16.3924 19.448 22.5979 23.7887 30.2107C19.4858 28.7278 15.6358 27.9061 12.6728 27.9061C9.90801 27.9061 8.07739 28.6145 7.25644 30.0218C5.52018 32.997 8.96439 38.3525 15.683 44.0479C10.1345 44.114 5.82214 44.8602 3.14225 46.1731C1.37768 47.0326 0.320829 48.1377 0.0849237 49.4411C-0.518994 52.8131 4.57656 56.6856 12.8521 59.7742C4.53881 62.8061 -0.556738 66.6786 0.0471788 70.06C0.64166 73.3469 6.44493 75.3399 15.6452 75.4532C8.92665 81.1486 5.473 86.5041 7.2187 89.4793C8.03965 90.8866 9.86083 91.595 12.6351 91.595C15.598 91.595 19.4669 90.7639 23.7698 89.281C22.7979 90.9811 21.9675 92.6246 21.2881 94.1925C18.9007 99.7084 18.6931 103.647 20.6936 105.309C21.3541 105.857 22.2223 106.131 23.2697 106.131C26.3836 106.131 31.0546 103.666 36.1595 99.5479C34.7252 108.171 35.5745 114.471 38.8489 115.642C39.2169 115.775 39.5943 115.841 40.0001 115.841C43.1518 115.841 47.3698 111.638 51.3801 105.007C53.022 113.593 56.0133 119.232 59.4953 119.232C62.9772 119.232 65.9685 113.593 67.6104 105.007C71.6114 111.638 75.8388 115.841 78.9905 115.841C79.3962 115.841 79.7831 115.775 80.1417 115.642C83.4161 114.471 84.2653 108.171 82.831 99.5479C87.9266 103.666 92.5975 106.131 95.7209 106.131C96.7777 106.131 97.6459 105.857 98.297 105.309C99.8728 104.006 100.071 101.286 98.9292 97.4983C98.9009 97.3849 98.8631 97.281 98.8348 97.1677C98.8065 97.0827 98.7688 96.9882 98.7405 96.8938C97.995 94.6269 96.8155 92.0484 95.2396 89.281C99.5331 90.7639 103.393 91.595 106.355 91.595C109.12 91.595 110.951 90.8866 111.772 89.4793C113.508 86.5041 110.064 81.1486 103.345 75.4532C112.546 75.3399 118.358 73.3469 118.943 70.06C119.547 66.6786 114.442 62.8061 106.157 59.7175L106.176 59.7553Z" fill="black"/>
</svg>
